<mxfile host="app.diagrams.net" modified="2023-07-20T03:40:34.452Z" agent="Mozilla/5.0 (Windows NT 10.0; Win64; x64) AppleWebKit/537.36 (KHTML, like Gecko) Chrome/114.0.0.0 Safari/537.36" version="21.6.3" etag="Fu6N55kj4y4U2QDCDRoa" type="github">
  <diagram name="Page-1" id="MBPPT8XmERE-SGZNv0NV">
    <mxGraphModel>
      <root>
        <mxCell id="0" />
        <mxCell id="1" parent="0" />
      </root>
    </mxGraphModel>
  </diagram>
</mxfile>
